ffmpeg started on 2025-05-28 at 10:43:46
Report written to "D:\Convert\FFMetrics\reports\psnr_report-6.txt"
Log level: 32
Command line:
ffmpeg -hide_banner -nostdin -i "G:\\\xc0\xed\xe8\xec\xe5\\\xce\xed\xe3\xee\xe8\xed\xe3\xe8\\!_36_\xce\xf1\xe5\xed\xfc_2024\\JamClub\\MF \xcf\xf0\xe8\xe7\xf0\xe0\xea\\\xd2\xc2-1\\[JAMCLUB] MF Ghost - 12 (1080p)_HEVC.mkv" -i "G:\\\xc0\xed\xe8\xec\xe5\\\xce\xed\xe3\xee\xe8\xed\xe3\xe8\\!_36_\xce\xf1\xe5\xed\xfc_2024\\JamClub\\MF \xcf\xf0\xe8\xe7\xf0\xe0\xea\\\xd2\xc2-1\\[JAMCLUB] MF Ghost - 12 (1080p).mp4" -lavfi "[0:v]settb=AVTB,setpts=PTS-STARTPTS,format=pix_fmts=yuv420p10,fps=24000/1001,scale=1920:1080:flags=bicubic[main];[1:v]settb=AVTB,setpts=PTS-STARTPTS,format=pix_fmts=yuv420p,fps=24000/1001,scale=1920:1080:flags=bicubic[ref];[main][ref]psnr=eof_action=endall:stats_file='D\\:/Convert/FFMetrics/logs/psnr_logfile-6.txt'" -f null -
Input #0, matroska,webm, from 'G:\Аниме\Онгоинги\!_36_Осень_2024\JamClub\MF Призрак\ТВ-1\[JAMCLUB] MF Ghost - 12 (1080p)_HEVC.mkv':
  Metadata:
    COMPATIBLE_BRANDS: isomiso2avc1mp41
    MAJOR_BRAND     : isom
    MINOR_VERSION   : 512
    ENCODER         : Lavf61.7.100
  Duration: 00:24:02.28, start: -0.021000, bitrate: 1537 kb/s
  Stream #0:0: Video: hevc (Main 10), yuv420p10le(tv, bt709, progressive), 1920x1080 [SAR 1:1 DAR 16:9], 23.98 fps, 23.98 tbr, 1k tbn (default)
      Metadata:
        HANDLER_NAME    : VideoHandler
        VENDOR_ID       : [0][0][0][0]
        ENCODER         : Lavc61.19.100 libx265
        BPS             : 1339212
        DURATION        : 00:24:02.148708333
        NUMBER_OF_FRAMES: 34577
        NUMBER_OF_BYTES : 241417762
        _STATISTICS_WRITING_APP: mkvpropedit v66.0.0 ('Josie') 64-bit
        _STATISTICS_WRITING_DATE_UTC: 2025-05-27 10:46:52
        _STATISTICS_TAGS: BPS DURATION NUMBER_OF_FRAMES NUMBER_OF_BYTES
  Stream #0:1: Audio: aac (LC), 48000 Hz, stereo, fltp (default)
      Metadata:
        HANDLER_NAME    : SoundHandler
        VENDOR_ID       : [0][0][0][0]
        ENCODER         : Lavc61.19.100 aac
        BPS             : 194442
        DURATION        : 00:24:02.261000000
        NUMBER_OF_FRAMES: 67607
        NUMBER_OF_BYTES : 35054568
        _STATISTICS_WRITING_APP: mkvpropedit v66.0.0 ('Josie') 64-bit
        _STATISTICS_WRITING_DATE_UTC: 2025-05-27 10:46:52
        _STATISTICS_TAGS: BPS DURATION NUMBER_OF_FRAMES NUMBER_OF_BYTES
Input #1, mov,mp4,m4a,3gp,3g2,mj2, from 'G:\Аниме\Онгоинги\!_36_Осень_2024\JamClub\MF Призрак\ТВ-1\[JAMCLUB] MF Ghost - 12 (1080p).mp4':
  Metadata:
    major_brand     : isom
    minor_version   : 512
    compatible_brands: isomiso2avc1mp41
    encoder         : Lavf60.10.100
  Duration: 00:24:02.26, start: 0.000000, bitrate: 5235 kb/s
  Stream #1:0[0x1](und): Video: h264 (High) (avc1 / 0x31637661), yuv420p(tv, bt709, progressive), 1920x1080 [SAR 1:1 DAR 16:9], 4974 kb/s, 23.98 fps, 23.98 tbr, 24k tbn (default)
      Metadata:
        handler_name    : VideoHandler
        vendor_id       : [0][0][0][0]
        encoder         : Lavc60.23.100 h264_nvenc
  Stream #1:1[0x2](und): Audio: aac (LC) (mp4a / 0x6134706D), 48000 Hz, stereo, fltp, 255 kb/s (default)
      Metadata:
        handler_name    : SoundHandler
        vendor_id       : [0][0][0][0]
Stream mapping:
  Stream #0:0 (hevc) -> settb:default
  Stream #1:0 (h264) -> settb:default
  psnr:default -> Stream #0:0 (wrapped_avframe)
  Stream #0:1 -> #0:1 (aac (native) -> pcm_s16le (native))
Output #0, null, to 'pipe:':
  Metadata:
    COMPATIBLE_BRANDS: isomiso2avc1mp41
    MAJOR_BRAND     : isom
    MINOR_VERSION   : 512
    encoder         : Lavf61.7.100
  Stream #0:0: Video: wrapped_avframe, yuv420p10le(tv, bt709, progressive), 1920x1080 [SAR 1:1 DAR 16:9], q=2-31, 200 kb/s, 23.98 fps, 23.98 tbn
      Metadata:
        encoder         : Lavc61.19.100 wrapped_avframe
  Stream #0:1: Audio: pcm_s16le, 48000 Hz, stereo, s16, 1536 kb/s (default)
      Metadata:
        HANDLER_NAME    : SoundHandler
        VENDOR_ID       : [0][0][0][0]
        _STATISTICS_TAGS: BPS DURATION NUMBER_OF_FRAMES NUMBER_OF_BYTES
        BPS             : 194442
        DURATION        : 00:24:02.261000000
        NUMBER_OF_FRAMES: 67607
        NUMBER_OF_BYTES : 35054568
        _STATISTICS_WRITING_APP: mkvpropedit v66.0.0 ('Josie') 64-bit
        _STATISTICS_WRITING_DATE_UTC: 2025-05-27 10:46:52
        encoder         : Lavc61.19.100 pcm_s16le
frame=  116 fps=0.0 q=-0.0 size=N/A time=00:00:04.83 bitrate=N/A speed= 9.6x    frame=  284 fps=276 q=-0.0 size=N/A time=00:00:11.84 bitrate=N/A speed=11.5x    frame=  495 fps=322 q=-0.0 size=N/A time=00:00:20.64 bitrate=N/A speed=13.4x    frame=  738 fps=358 q=-0.0 size=N/A time=00:00:30.78 bitrate=N/A speed=14.9x    frame=  943 fps=367 q=-0.0 size=N/A time=00:00:39.33 bitrate=N/A speed=15.3x    frame= 1188 fps=384 q=-0.0 size=N/A time=00:00:49.54 bitrate=N/A speed=  16x    frame= 1370 fps=380 q=-0.0 size=N/A time=00:00:57.14 bitrate=N/A speed=15.9x    frame= 1600 fps=388 q=-0.0 size=N/A time=00:01:06.73 bitrate=N/A speed=16.2x    frame= 1796 fps=388 q=-0.0 size=N/A time=00:01:14.90 bitrate=N/A speed=16.2x    frame= 1998 fps=388 q=-0.0 size=N/A time=00:01:23.33 bitrate=N/A speed=16.2x    frame= 2218 fps=392 q=-0.0 size=N/A time=00:01:32.50 bitrate=N/A speed=16.3x    frame= 2425 fps=392 q=-0.0 size=N/A time=00:01:41.14 bitrate=N/A speed=16.4x    frame= 2516 fps=375 q=-0.0 size=N/A time=00:01:44.93 bitrate=N/A speed=15.7x    frame= 2723 fps=377 q=-0.0 size=N/A time=00:01:53.57 bitrate=N/A speed=15.7x    frame= 2885 fps=373 q=-0.0 size=N/A time=00:02:00.32 bitrate=N/A speed=15.6x    frame= 3073 fps=373 q=-0.0 size=N/A time=00:02:08.16 bitrate=N/A speed=15.6x    frame= 3216 fps=367 q=-0.0 size=N/A time=00:02:14.13 bitrate=N/A speed=15.3x    frame= 3394 fps=366 q=-0.0 size=N/A time=00:02:21.55 bitrate=N/A speed=15.3x    frame= 3579 fps=365 q=-0.0 size=N/A time=00:02:29.27 bitrate=N/A speed=15.2x    frame= 3703 fps=359 q=-0.0 size=N/A time=00:02:34.44 bitrate=N/A speed=  15x    frame= 3887 fps=359 q=-0.0 size=N/A time=00:02:42.12 bitrate=N/A speed=  15x    frame= 4007 fps=353 q=-0.0 size=N/A time=00:02:47.12 bitrate=N/A speed=14.7x    frame= 4149 fps=350 q=-0.0 size=N/A time=00:02:53.04 bitrate=N/A speed=14.6x    frame= 4306 fps=348 q=-0.0 size=N/A time=00:02:59.59 bitrate=N/A speed=14.5x    frame= 4456 fps=346 q=-0.0 size=N/A time=00:03:05.85 bitrate=N/A speed=14.4x    frame= 4662 fps=348 q=-0.0 size=N/A time=00:03:14.44 bitrate=N/A speed=14.5x    frame= 4904 fps=352 q=-0.0 size=N/A time=00:03:24.53 bitrate=N/A speed=14.7x    frame= 5155 fps=357 q=-0.0 size=N/A time=00:03:35.04 bitrate=N/A speed=14.9x    frame= 5404 fps=362 q=-0.0 size=N/A time=00:03:45.39 bitrate=N/A speed=15.1x    frame= 5681 fps=367 q=-0.0 size=N/A time=00:03:56.94 bitrate=N/A speed=15.3x    frame= 5945 fps=372 q=-0.0 size=N/A time=00:04:07.95 bitrate=N/A speed=15.5x    frame= 6210 fps=376 q=-0.0 size=N/A time=00:04:19.00 bitrate=N/A speed=15.7x    frame= 6464 fps=380 q=-0.0 size=N/A time=00:04:29.60 bitrate=N/A speed=15.9x    frame= 6739 fps=384 q=-0.0 size=N/A time=00:04:41.07 bitrate=N/A speed=  16x    frame= 6989 fps=388 q=-0.0 size=N/A time=00:04:51.49 bitrate=N/A speed=16.2x    frame= 7267 fps=392 q=-0.0 size=N/A time=00:05:03.09 bitrate=N/A speed=16.3x    frame= 7535 fps=395 q=-0.0 size=N/A time=00:05:14.27 bitrate=N/A speed=16.5x    frame= 7795 fps=398 q=-0.0 size=N/A time=00:05:25.11 bitrate=N/A speed=16.6x    frame= 8045 fps=400 q=-0.0 size=N/A time=00:05:35.54 bitrate=N/A speed=16.7x    frame= 8314 fps=403 q=-0.0 size=N/A time=00:05:46.76 bitrate=N/A speed=16.8x    frame= 8574 fps=405 q=-0.0 size=N/A time=00:05:57.60 bitrate=N/A speed=16.9x    frame= 8841 fps=408 q=-0.0 size=N/A time=00:06:08.74 bitrate=N/A speed=  17x    frame= 9091 fps=410 q=-0.0 size=N/A time=00:06:19.17 bitrate=N/A speed=17.1x    frame= 9315 fps=410 q=-0.0 size=N/A time=00:06:28.51 bitrate=N/A speed=17.1x    frame= 9543 fps=411 q=-0.0 size=N/A time=00:06:38.02 bitrate=N/A speed=17.1x    frame= 9765 fps=412 q=-0.0 size=N/A time=00:06:47.28 bitrate=N/A speed=17.2x    frame=10013 fps=413 q=-0.0 size=N/A time=00:06:57.62 bitrate=N/A speed=17.2x    frame=10269 fps=415 q=-0.0 size=N/A time=00:07:08.30 bitrate=N/A speed=17.3x    frame=10522 fps=416 q=-0.0 size=N/A time=00:07:18.85 bitrate=N/A speed=17.4x    frame=10780 fps=418 q=-0.0 size=N/A time=00:07:29.61 bitrate=N/A speed=17.4x    frame=11048 fps=420 q=-0.0 size=N/A time=00:07:40.79 bitrate=N/A speed=17.5x    frame=11309 fps=422 q=-0.0 size=N/A time=00:07:51.67 bitrate=N/A speed=17.6x    frame=11553 fps=423 q=-0.0 size=N/A time=00:08:01.85 bitrate=N/A speed=17.6x    frame=11779 fps=423 q=-0.0 size=N/A time=00:08:11.28 bitrate=N/A speed=17.6x    frame=12042 fps=425 q=-0.0 size=N/A time=00:08:22.25 bitrate=N/A speed=17.7x    frame=12266 fps=425 q=-0.0 size=N/A time=00:08:31.59 bitrate=N/A speed=17.7x    frame=12499 fps=425 q=-0.0 size=N/A time=00:08:41.35 bitrate=N/A speed=17.7x    frame=12768 fps=427 q=-0.0 size=N/A time=00:08:52.53 bitrate=N/A speed=17.8x    frame=13038 fps=428 q=-0.0 size=N/A time=00:09:03.79 bitrate=N/A speed=17.9x    frame=13300 fps=430 q=-0.0 size=N/A time=00:09:14.72 bitrate=N/A speed=17.9x    frame=13562 fps=431 q=-0.0 size=N/A time=00:09:25.64 bitrate=N/A speed=  18x    frame=13796 fps=431 q=-0.0 size=N/A time=00:09:35.40 bitrate=N/A speed=  18x    frame=14051 fps=432 q=-0.0 size=N/A time=00:09:46.04 bitrate=N/A speed=  18x    frame=14318 fps=434 q=-0.0 size=N/A time=00:09:57.17 bitrate=N/A speed=18.1x    frame=14590 fps=435 q=-0.0 size=N/A time=00:10:08.52 bitrate=N/A speed=18.1x    frame=14842 fps=436 q=-0.0 size=N/A time=00:10:19.03 bitrate=N/A speed=18.2x    frame=15057 fps=436 q=-0.0 size=N/A time=00:10:28.00 bitrate=N/A speed=18.2x    frame=15324 fps=437 q=-0.0 size=N/A time=00:10:39.13 bitrate=N/A speed=18.2x    frame=15540 fps=437 q=-0.0 size=N/A time=00:10:48.14 bitrate=N/A speed=18.2x    frame=15757 fps=436 q=-0.0 size=N/A time=00:10:57.19 bitrate=N/A speed=18.2x    frame=15984 fps=436 q=-0.0 size=N/A time=00:11:06.66 bitrate=N/A speed=18.2x    frame=16211 fps=436 q=-0.0 size=N/A time=00:11:16.13 bitrate=N/A speed=18.2x    frame=16446 fps=437 q=-0.0 size=N/A time=00:11:25.93 bitrate=N/A speed=18.2x    frame=16681 fps=437 q=-0.0 size=N/A time=00:11:35.73 bitrate=N/A speed=18.2x    frame=16941 fps=438 q=-0.0 size=N/A time=00:11:46.58 bitrate=N/A speed=18.3x    frame=17205 fps=439 q=-0.0 size=N/A time=00:11:57.59 bitrate=N/A speed=18.3x    frame=17450 fps=439 q=-0.0 size=N/A time=00:12:07.81 bitrate=N/A speed=18.3x    frame=17671 fps=439 q=-0.0 size=N/A time=00:12:17.02 bitrate=N/A speed=18.3x    frame=17864 fps=438 q=-0.0 size=N/A time=00:12:25.07 bitrate=N/A speed=18.3x    frame=18086 fps=438 q=-0.0 size=N/A time=00:12:34.33 bitrate=N/A speed=18.3x    frame=18326 fps=439 q=-0.0 size=N/A time=00:12:44.34 bitrate=N/A speed=18.3x    frame=18520 fps=438 q=-0.0 size=N/A time=00:12:52.43 bitrate=N/A speed=18.3x    frame=18726 fps=437 q=-0.0 size=N/A time=00:13:01.03 bitrate=N/A speed=18.2x    frame=18940 fps=437 q=-0.0 size=N/A time=00:13:09.95 bitrate=N/A speed=18.2x    frame=19149 fps=437 q=-0.0 size=N/A time=00:13:18.67 bitrate=N/A speed=18.2x    frame=19410 fps=437 q=-0.0 size=N/A time=00:13:29.55 bitrate=N/A speed=18.2x    frame=19686 fps=439 q=-0.0 size=N/A time=00:13:41.07 bitrate=N/A speed=18.3x    frame=19930 fps=439 q=-0.0 size=N/A time=00:13:51.24 bitrate=N/A speed=18.3x    frame=20179 fps=440 q=-0.0 size=N/A time=00:14:01.63 bitrate=N/A speed=18.3x    frame=20443 fps=440 q=-0.0 size=N/A time=00:14:12.64 bitrate=N/A speed=18.4x    frame=20722 fps=441 q=-0.0 size=N/A time=00:14:24.28 bitrate=N/A speed=18.4x    frame=20970 fps=442 q=-0.0 size=N/A time=00:14:34.62 bitrate=N/A speed=18.4x    frame=21239 fps=443 q=-0.0 size=N/A time=00:14:45.84 bitrate=N/A speed=18.5x    frame=21506 fps=443 q=-0.0 size=N/A time=00:14:56.97 bitrate=N/A speed=18.5x    frame=21782 fps=444 q=-0.0 size=N/A time=00:15:08.49 bitrate=N/A speed=18.5x    frame=22040 fps=445 q=-0.0 size=N/A time=00:15:19.25 bitrate=N/A speed=18.6x    frame=22297 fps=445 q=-0.0 size=N/A time=00:15:29.97 bitrate=N/A speed=18.6x    frame=22539 fps=446 q=-0.0 size=N/A time=00:15:40.06 bitrate=N/A speed=18.6x    frame=22782 fps=446 q=-0.0 size=N/A time=00:15:50.19 bitrate=N/A speed=18.6x    frame=22989 fps=445 q=-0.0 size=N/A time=00:15:58.83 bitrate=N/A speed=18.6x    frame=23166 fps=444 q=-0.0 size=N/A time=00:16:06.21 bitrate=N/A speed=18.5x    frame=23376 fps=444 q=-0.0 size=N/A time=00:16:14.97 bitrate=N/A speed=18.5x    frame=23591 fps=444 q=-0.0 size=N/A time=00:16:23.94 bitrate=N/A speed=18.5x    frame=23847 fps=444 q=-0.0 size=N/A time=00:16:34.61 bitrate=N/A speed=18.5x    frame=24088 fps=445 q=-0.0 size=N/A time=00:16:44.67 bitrate=N/A speed=18.5x    frame=24335 fps=445 q=-0.0 size=N/A time=00:16:54.97 bitrate=N/A speed=18.6x    frame=24586 fps=445 q=-0.0 size=N/A time=00:17:05.44 bitrate=N/A speed=18.6x    frame=24791 fps=445 q=-0.0 size=N/A time=00:17:13.99 bitrate=N/A speed=18.5x    frame=24955 fps=444 q=-0.0 size=N/A time=00:17:20.83 bitrate=N/A speed=18.5x    frame=25130 fps=443 q=-0.0 size=N/A time=00:17:28.13 bitrate=N/A speed=18.5x    frame=25310 fps=442 q=-0.0 size=N/A time=00:17:35.63 bitrate=N/A speed=18.4x    frame=25553 fps=442 q=-0.0 size=N/A time=00:17:45.77 bitrate=N/A speed=18.4x    frame=25780 fps=442 q=-0.0 size=N/A time=00:17:55.24 bitrate=N/A speed=18.4x    frame=26049 fps=443 q=-0.0 size=N/A time=00:18:06.46 bitrate=N/A speed=18.5x    frame=26319 fps=443 q=-0.0 size=N/A time=00:18:17.72 bitrate=N/A speed=18.5x    frame=26594 fps=444 q=-0.0 size=N/A time=00:18:29.19 bitrate=N/A speed=18.5x    frame=26827 fps=444 q=-0.0 size=N/A time=00:18:38.90 bitrate=N/A speed=18.5x    frame=27055 fps=444 q=-0.0 size=N/A time=00:18:48.41 bitrate=N/A speed=18.5x    frame=27311 fps=445 q=-0.0 size=N/A time=00:18:59.09 bitrate=N/A speed=18.5x    frame=27524 fps=444 q=-0.0 size=N/A time=00:19:07.98 bitrate=N/A speed=18.5x    frame=27749 fps=444 q=-0.0 size=N/A time=00:19:17.36 bitrate=N/A speed=18.5x    frame=27982 fps=444 q=-0.0 size=N/A time=00:19:27.08 bitrate=N/A speed=18.5x    frame=28174 fps=444 q=-0.0 size=N/A time=00:19:35.09 bitrate=N/A speed=18.5x    frame=28371 fps=443 q=-0.0 size=N/A time=00:19:43.30 bitrate=N/A speed=18.5x    frame=28583 fps=443 q=-0.0 size=N/A time=00:19:52.14 bitrate=N/A speed=18.5x    frame=28787 fps=443 q=-0.0 size=N/A time=00:20:00.65 bitrate=N/A speed=18.5x    frame=29018 fps=443 q=-0.0 size=N/A time=00:20:10.29 bitrate=N/A speed=18.5x    frame=29217 fps=442 q=-0.0 size=N/A time=00:20:18.59 bitrate=N/A speed=18.4x    frame=29474 fps=443 q=-0.0 size=N/A time=00:20:29.31 bitrate=N/A speed=18.5x    frame=29640 fps=442 q=-0.0 size=N/A time=00:20:36.23 bitrate=N/A speed=18.4x    frame=29829 fps=441 q=-0.0 size=N/A time=00:20:44.11 bitrate=N/A speed=18.4x    frame=30055 fps=441 q=-0.0 size=N/A time=00:20:53.54 bitrate=N/A speed=18.4x    frame=30279 fps=441 q=-0.0 size=N/A time=00:21:02.88 bitrate=N/A speed=18.4x    frame=30471 fps=441 q=-0.0 size=N/A time=00:21:10.89 bitrate=N/A speed=18.4x    frame=30684 fps=440 q=-0.0 size=N/A time=00:21:19.77 bitrate=N/A speed=18.4x    frame=30876 fps=440 q=-0.0 size=N/A time=00:21:27.78 bitrate=N/A speed=18.3x    frame=31099 fps=440 q=-0.0 size=N/A time=00:21:37.08 bitrate=N/A speed=18.3x    frame=31326 fps=440 q=-0.0 size=N/A time=00:21:46.55 bitrate=N/A speed=18.3x    frame=31511 fps=439 q=-0.0 size=N/A time=00:21:54.27 bitrate=N/A speed=18.3x    frame=31700 fps=439 q=-0.0 size=N/A time=00:22:02.15 bitrate=N/A speed=18.3x    frame=31909 fps=438 q=-0.0 size=N/A time=00:22:10.87 bitrate=N/A speed=18.3x    frame=32123 fps=438 q=-0.0 size=N/A time=00:22:19.79 bitrate=N/A speed=18.3x    frame=32346 fps=438 q=-0.0 size=N/A time=00:22:29.09 bitrate=N/A speed=18.3x    frame=32526 fps=438 q=-0.0 size=N/A time=00:22:36.60 bitrate=N/A speed=18.3x    frame=32753 fps=438 q=-0.0 size=N/A time=00:22:46.07 bitrate=N/A speed=18.3x    frame=32951 fps=437 q=-0.0 size=N/A time=00:22:54.33 bitrate=N/A speed=18.2x    frame=33173 fps=437 q=-0.0 size=N/A time=00:23:03.59 bitrate=N/A speed=18.2x    frame=33381 fps=437 q=-0.0 size=N/A time=00:23:12.26 bitrate=N/A speed=18.2x    frame=33570 fps=437 q=-0.0 size=N/A time=00:23:20.14 bitrate=N/A speed=18.2x    frame=33779 fps=436 q=-0.0 size=N/A time=00:23:28.86 bitrate=N/A speed=18.2x    frame=33975 fps=436 q=-0.0 size=N/A time=00:23:37.04 bitrate=N/A speed=18.2x    frame=34181 fps=436 q=-0.0 size=N/A time=00:23:45.63 bitrate=N/A speed=18.2x    frame=34370 fps=435 q=-0.0 size=N/A time=00:23:53.51 bitrate=N/A speed=18.2x    [Parsed_psnr_10 @ 0000023dbf7ad6c0] PSNR y:48.239001 u:50.897663 v:50.870257 average:48.955240 min:37.994950 max:inf
[out#0/null @ 0000023dbe2f0700] video:14857KiB audio:270428KiB subtitle:0KiB other streams:0KiB global headers:0KiB muxing overhead: unknown
frame=34577 fps=436 q=-0.0 Lsize=N/A time=00:24:02.14 bitrate=N/A speed=18.2x    
